<svg xmlns="http://www.w3.org/2000/svg" viewBox="0 0 24 24" fill="none" shape-rendering="auto"><metadata xmlns:rdf="http://www.w3.org/1999/02/22-rdf-syntax-ns#" xmlns:xsi="http://www.w3.org/2001/XMLSchema-instance" xmlns:dc="http://purl.org/dc/elements/1.1/" xmlns:dcterms="http://purl.org/dc/terms/"><rdf:RDF><rdf:Description><dc:title>Bootstrap Icons</dc:title><dc:creator>The Bootstrap Authors</dc:creator><dc:source xsi:type="dcterms:URI">https://github.com/twbs/icons</dc:source><dcterms:license xsi:type="dcterms:URI">https://github.com/twbs/icons/blob/main/LICENSE</dcterms:license><dc:rights>„Bootstrap Icons” (https://github.com/twbs/icons) by „The Bootstrap Authors”, licensed under „MIT” (https://github.com/twbs/icons/blob/main/LICENSE)</dc:rights></rdf:Description></rdf:RDF></metadata><mask id="viewboxMask"><rect width="24" height="24" rx="0" ry="0" x="0" y="0" fill="#fff" /></mask><g mask="url(#viewboxMask)"><rect fill="#c5e1a5" width="24" height="24" x="0" y="0" /><g transform="translate(4 4)"><path d="M3 5.188C3 2.341 5.22 0 8 0s5 2.342 5 5.188v5.625C13 13.658 10.78 16 8 16s-5-2.342-5-5.188V5.188Zm4.5-4.155C5.541 1.289 4 3.035 4 5.188V5.5h3.5V1.033Zm1 0V5.5H12v-.313c0-2.152-1.541-3.898-3.5-4.154ZM12 6.5H4v4.313C4 13.145 5.81 15 8 15s4-1.855 4-4.188V6.5Z" fill="#fff"/></g></g></svg>