<svg xmlns="http://www.w3.org/2000/svg" viewBox="0 0 24 24" fill="none" shape-rendering="auto"><metadata xmlns:rdf="http://www.w3.org/1999/02/22-rdf-syntax-ns#" xmlns:xsi="http://www.w3.org/2001/XMLSchema-instance" xmlns:dc="http://purl.org/dc/elements/1.1/" xmlns:dcterms="http://purl.org/dc/terms/"><rdf:RDF><rdf:Description><dc:title>Bootstrap Icons</dc:title><dc:creator>The Bootstrap Authors</dc:creator><dc:source xsi:type="dcterms:URI">https://github.com/twbs/icons</dc:source><dcterms:license xsi:type="dcterms:URI">https://github.com/twbs/icons/blob/main/LICENSE</dcterms:license><dc:rights>„Bootstrap Icons” (https://github.com/twbs/icons) by „The Bootstrap Authors”, licensed under „MIT” (https://github.com/twbs/icons/blob/main/LICENSE)</dc:rights></rdf:Description></rdf:RDF></metadata><mask id="viewboxMask"><rect width="24" height="24" rx="0" ry="0" x="0" y="0" fill="#fff" /></mask><g mask="url(#viewboxMask)"><rect fill="#ffcc80" width="24" height="24" x="0" y="0" /><g transform="translate(4 4)"><path d="M6.174 1.184a2 2 0 0 1 3.652 0A2 2 0 0 1 12.99 3.01a2 2 0 0 1 1.826 3.164 2 2 0 0 1 0 3.652 2 2 0 0 1-1.826 3.164 2 2 0 0 1-3.164 1.826 2 2 0 0 1-3.652 0A2 2 0 0 1 3.01 12.99a2 2 0 0 1-1.826-3.164 2 2 0 0 1 0-3.652A2 2 0 0 1 3.01 3.01a2 2 0 0 1 3.164-1.826ZM8 1a1 1 0 0 0-.998 1.03l.01.091c.012.077.029.176.054.296.049.241.122.542.213.887.182.688.428 1.513.676 2.314L8 5.762l.045-.144c.248-.8.494-1.626.676-2.314.091-.345.164-.646.213-.887.026-.128.048-.257.064-.386L9 2a1 1 0 0 0-1-1ZM2 9l.03-.002.091-.01c.1-.015.198-.033.296-.054.241-.049.542-.122.887-.213.776-.21 1.547-.435 2.314-.676L5.762 8l-.144-.045a60.574 60.574 0 0 0-2.314-.676c-.294-.08-.59-.15-.887-.213a4.992 4.992 0 0 0-.386-.064L2 7a1 1 0 0 0 0 2Zm7 5-.002-.03a4.99 4.99 0 0 0-.064-.386 16.363 16.363 0 0 0-.213-.888 60.505 60.505 0 0 0-.676-2.314L8 10.238l-.045.144c-.248.8-.494 1.626-.676 2.314-.091.345-.164.646-.213.887a4.99 4.99 0 0 0-.064.386L7 14a1 1 0 0 0 2 0Zm-5.696-2.134.025-.017c.104-.079.205-.162.303-.248.184-.164.408-.377.661-.629.567-.57 1.123-1.15 1.667-1.742l.103-.111-.147.033c-.785.175-1.566.366-2.343.572-.344.093-.64.18-.874.258a5.026 5.026 0 0 0-.367.138l-.027.014a1 1 0 1 0 1 1.732h-.001ZM4.5 14.062a1 1 0 0 0 1.366-.366l.014-.027c.01-.02.021-.048.036-.084a5.09 5.09 0 0 0 .102-.283c.078-.233.165-.53.258-.874.206-.777.397-1.558.572-2.343l.033-.147-.11.102a60.75 60.75 0 0 0-1.743 1.667 17 17 0 0 0-.629.66c-.087.098-.17.2-.248.304l-.017.025a1 1 0 0 0 .366 1.366Zm9.196-8.196a1 1 0 0 0-1-1.732l-.025.017a4.964 4.964 0 0 0-.303.248c-.226.204-.446.413-.661.629-.567.57-1.123 1.15-1.667 1.742l-.102.111.147-.033a60.594 60.594 0 0 0 2.342-.572c.345-.093.642-.18.875-.258a4.995 4.995 0 0 0 .394-.152ZM11.5 1.938a1 1 0 0 0-1.366.366l-.014.027c-.01.02-.021.048-.036.084a5.07 5.07 0 0 0-.102.283c-.078.233-.165.53-.258.875a60.621 60.621 0 0 0-.572 2.342l-.033.147.11-.102c.592-.544 1.173-1.1 1.743-1.667.252-.253.465-.477.629-.66.087-.098.17-.2.248-.304l.017-.025a1 1 0 0 0-.366-1.366ZM14 9a1 1 0 1 0 0-2l-.03.002a4.99 4.99 0 0 0-.386.064c-.242.049-.543.122-.888.213-.688.182-1.513.428-2.314.676L10.238 8l.144.045c.8.248 1.626.494 2.314.676.345.091.646.164.887.213.128.026.256.048.386.064L14 9ZM1.938 4.5a1 1 0 0 0 .393 1.38l.084.035c.072.03.166.064.283.103.233.078.53.165.874.258.777.206 1.558.397 2.343.572l.147.033-.103-.111a60.573 60.573 0 0 0-1.666-1.742 16.708 16.708 0 0 0-.66-.629c-.098-.087-.2-.17-.304-.248l-.025-.017a1 1 0 0 0-1.366.366Zm2.196-1.196.017.025a5 5 0 0 0 .248.303c.164.184.377.408.629.661.57.567 1.15 1.123 1.742 1.667l.111.102-.033-.147a60.603 60.603 0 0 0-.572-2.342c-.093-.345-.18-.642-.258-.875a5.003 5.003 0 0 0-.138-.367l-.014-.027a1 1 0 1 0-1.732 1Zm9.928 8.196a1 1 0 0 0-.366-1.366l-.027-.014a4.973 4.973 0 0 0-.367-.138c-.233-.078-.53-.165-.875-.258a60.612 60.612 0 0 0-2.342-.572l-.147-.033.102.111a60.84 60.84 0 0 0 1.667 1.742c.253.252.477.465.66.629.098.087.2.17.304.248l.025.017a1 1 0 0 0 1.366-.366Zm-3.928 2.196a1 1 0 0 0 1.732-1l-.017-.025a5.035 5.035 0 0 0-.248-.303 16.631 16.631 0 0 0-.629-.661A60.368 60.368 0 0 0 9.23 10.04l-.111-.102.033.147c.175.784.366 1.565.572 2.342.093.345.18.642.258.875a5 5 0 0 0 .152.394ZM8 9.5a1.5 1.5 0 1 0 0-3 1.5 1.5 0 0 0 0 3Z" fill="#fff"/></g></g></svg>