<svg xmlns="http://www.w3.org/2000/svg" viewBox="0 0 24 24" fill="none" shape-rendering="auto"><metadata xmlns:rdf="http://www.w3.org/1999/02/22-rdf-syntax-ns#" xmlns:xsi="http://www.w3.org/2001/XMLSchema-instance" xmlns:dc="http://purl.org/dc/elements/1.1/" xmlns:dcterms="http://purl.org/dc/terms/"><rdf:RDF><rdf:Description><dc:title>Bootstrap Icons</dc:title><dc:creator>The Bootstrap Authors</dc:creator><dc:source xsi:type="dcterms:URI">https://github.com/twbs/icons</dc:source><dcterms:license xsi:type="dcterms:URI">https://github.com/twbs/icons/blob/main/LICENSE</dcterms:license><dc:rights>„Bootstrap Icons” (https://github.com/twbs/icons) by „The Bootstrap Authors”, licensed under „MIT” (https://github.com/twbs/icons/blob/main/LICENSE)</dc:rights></rdf:Description></rdf:RDF></metadata><mask id="viewboxMask"><rect width="24" height="24" rx="0" ry="0" x="0" y="0" fill="#fff" /></mask><g mask="url(#viewboxMask)"><rect fill="#f48fb1" width="24" height="24" x="0" y="0" /><g transform="translate(4 4)"><path d="M3.1.7a.5.5 0 0 1 .4-.2h9a.5.5 0 0 1 .4.2l2.976 3.974c.149.185.156.45.01.644L8.4 15.3a.5.5 0 0 1-.8 0L.1 5.3a.5.5 0 0 1 0-.6l3-4Zm11.386 3.785-1.806-2.41-.776 2.413 2.582-.003Zm-3.633.004.961-2.989H4.186l.963 2.995 5.704-.006ZM5.47 5.495 8 13.366l2.532-7.876-5.062.005Zm-1.371-.999-.78-2.422-1.818 2.425 2.598-.003ZM1.499 5.5l5.113 6.817-2.192-6.82L1.5 5.5h-.001Zm7.889 6.817 5.123-6.83-2.928.002-2.195 6.828Z" fill="#fff"/></g></g></svg>