<svg xmlns="http://www.w3.org/2000/svg" viewBox="0 0 24 24" fill="none" shape-rendering="auto"><metadata xmlns:rdf="http://www.w3.org/1999/02/22-rdf-syntax-ns#" xmlns:xsi="http://www.w3.org/2001/XMLSchema-instance" xmlns:dc="http://purl.org/dc/elements/1.1/" xmlns:dcterms="http://purl.org/dc/terms/"><rdf:RDF><rdf:Description><dc:title>Bootstrap Icons</dc:title><dc:creator>The Bootstrap Authors</dc:creator><dc:source xsi:type="dcterms:URI">https://github.com/twbs/icons</dc:source><dcterms:license xsi:type="dcterms:URI">https://github.com/twbs/icons/blob/main/LICENSE</dcterms:license><dc:rights>„Bootstrap Icons” (https://github.com/twbs/icons) by „The Bootstrap Authors”, licensed under „MIT” (https://github.com/twbs/icons/blob/main/LICENSE)</dc:rights></rdf:Description></rdf:RDF></metadata><mask id="viewboxMask"><rect width="24" height="24" rx="0" ry="0" x="0" y="0" fill="#fff" /></mask><g mask="url(#viewboxMask)"><rect fill="#90caf9" width="24" height="24" x="0" y="0" /><g transform="translate(4 4)"><path d="M11.424 8c.437-.052.811-.136 1.04-.268a2 2 0 0 0-2-3.464c-.229.132-.489.414-.752.767C9.886 4.63 10 4.264 10 4a2 2 0 0 0-4 0c0 .264.114.63.288 1.035-.263-.353-.523-.635-.752-.767a2 2 0 0 0-2 3.464c.229.132.603.216 1.04.268-.437.052-.811.136-1.04.268a2 2 0 1 0 2 3.464c.229-.132.489-.414.752-.767C6.114 11.37 6 11.736 6 12a2 2 0 0 0 4 0c0-.264-.114-.63-.288-1.035.263.353.523.635.752.767a1.999 1.999 0 1 0 2-3.464c-.229-.132-.603-.216-1.04-.268ZM9 4c-.01.07-.025.138-.045.205-.039.132-.1.295-.183.484-.19.419-.403.827-.637 1.223L8 6.142a21.77 21.77 0 0 1-.135-.23 12.88 12.88 0 0 1-.637-1.223 4.215 4.215 0 0 1-.183-.484A1.473 1.473 0 0 1 7 4a1 1 0 0 1 2 0ZM3.67 5.5a1 1 0 0 1 1.366-.366c.055.044.107.091.156.142.094.1.204.233.326.4.245.333.502.747.742 1.163l.13.232-.265.002c-.46.005-.92-.015-1.379-.06a4.215 4.215 0 0 1-.51-.083 1.47 1.47 0 0 1-.2-.064A1 1 0 0 1 3.67 5.5Zm1.366 5.366a1 1 0 0 1-1-1.732c.001 0 .016-.008.047-.02.037-.013.087-.028.153-.044.134-.032.305-.06.51-.083.458-.045.919-.065 1.379-.06.09 0 .178 0 .266.002l-.131.232c-.24.416-.497.83-.742 1.163-.1.14-.21.274-.327.4-.048.05-.1.098-.155.142ZM9 12a1 1 0 1 1-2 0c.01-.07.025-.139.045-.206.039-.131.1-.294.183-.483.166-.378.396-.808.637-1.223L8 9.858l.135.23c.241.415.47.845.637 1.223.083.19.144.352.183.484.02.067.035.136.045.205Zm3.33-6.5a1 1 0 0 1-.366 1.366 1.479 1.479 0 0 1-.2.064c-.134.032-.305.06-.51.083-.412.045-.898.061-1.379.06-.09 0-.178 0-.266-.002l.131-.232c.24-.416.497-.83.742-1.163.1-.14.21-.274.327-.4.046-.05.085-.086.114-.11.026-.022.04-.03.041-.032a1 1 0 0 1 1.366.366Zm-1.366 5.366a1.489 1.489 0 0 1-.155-.141 4.205 4.205 0 0 1-.327-.4 12.88 12.88 0 0 1-.872-1.397l.265-.002c.48-.001.967.015 1.379.06.205.023.376.051.51.083.066.016.116.031.153.044l.048.02a1 1 0 1 1-1 1.732l-.001.001ZM8 9a1 1 0 1 1 0-2 1 1 0 0 1 0 2Z" fill="#fff"/></g></g></svg>